<svg width="752" height="320" viewBox="0 0 752 320" fill="none" xmlns="http://www.w3.org/2000/svg">
<path d="M226.359 247.97C226.359 253.493 221.881 257.97 216.359 257.97H202.762C197.239 257.97 192.762 262.447 192.762 267.97V306C192.762 311.523 188.285 316 182.762 316H145.114C139.591 316 135.114 311.523 135.114 306V267.97C135.114 262.447 130.637 257.97 125.114 257.97H26C20.4772 257.97 16 253.493 16 247.97V219.859C16 217.861 16.5985 215.909 17.7184 214.254L135.385 40.3951C137.245 37.6466 140.347 36 143.666 36H182.762C188.285 36 192.762 40.4772 192.762 46V202.005C192.762 207.528 197.239 212.005 202.762 212.005H216.359C221.881 212.005 226.359 216.483 226.359 222.005V247.97ZM125.114 212.005C130.637 212.005 135.114 207.528 135.114 202.005V164.509C135.114 156.593 135.432 145.102 136.069 130.036C136.638 116.549 137.106 108.126 137.471 104.769C137.527 104.255 137.129 103.798 136.612 103.798C136.281 103.798 135.981 103.992 135.845 104.293C131.181 114.59 125.593 124.639 119.08 134.44L78.1484 196.5C73.7632 203.148 78.5316 212.005 86.4962 212.005H125.114Z" fill="#E7EDF3"/>
<path d="M377.83 319.796C456.198 319.796 519.728 256.266 519.728 177.898C519.728 99.5299 456.198 36 377.83 36C299.462 36 235.932 99.5299 235.932 177.898C235.932 256.266 299.462 319.796 377.83 319.796Z" fill="#E7EDF3"/>
<path d="M565.229 21.833L568.077 25.2273C578.195 37.2849 576.622 55.2615 564.564 65.379L507.61 113.17C495.552 123.287 477.575 121.714 467.458 109.657L464.61 106.263C454.492 94.2049 456.065 76.2284 468.123 66.1108L525.077 18.3202C537.135 8.20262 555.111 9.77535 565.229 21.833Z" fill="#E7EDF3"/>
<path d="M377.5 281C434.661 281 481 234.661 481 177.5C481 120.339 434.661 74 377.5 74C320.339 74 274 120.339 274 177.5C274 234.661 320.339 281 377.5 281Z" fill="#1072BA"/>
<mask id="mask0_1396_2339" style="mask-type:alpha" maskUnits="userSpaceOnUse" x="274" y="74" width="207" height="207">
<path d="M377.5 281C434.661 281 481 234.661 481 177.5C481 120.339 434.661 74 377.5 74C320.339 74 274 120.339 274 177.5C274 234.661 320.339 281 377.5 281Z" fill="#1072BA"/>
</mask>
<g mask="url(#mask0_1396_2339)">
<path d="M395.697 228.207H360V316.175H395.697V228.207Z" fill="#134780"/>
</g>
<path d="M476.801 102H278.232C272.71 102 268.232 106.477 268.232 112V238.598C268.232 244.121 272.71 248.598 278.232 248.598H476.801C482.324 248.598 486.801 244.121 486.801 238.598V112C486.801 106.477 482.324 102 476.801 102Z" fill="white" stroke="#134780" stroke-width="10"/>
<path d="M331.392 143.72H289.984C287.223 143.72 284.984 145.958 284.984 148.72V226.847C284.984 229.609 287.223 231.847 289.984 231.847H331.392C334.153 231.847 336.392 229.609 336.392 226.847V148.72C336.392 145.958 334.153 143.72 331.392 143.72Z" fill="#134780" fill-opacity="0.1"/>
<path d="M465.051 143.72H353.141C350.379 143.72 348.141 145.958 348.141 148.72V178.377C348.141 181.139 350.379 183.377 353.141 183.377H465.051C467.812 183.377 470.051 181.139 470.051 178.377V148.72C470.051 145.958 467.812 143.72 465.051 143.72Z" fill="#134780" fill-opacity="0.1"/>
<path d="M398.955 192.19H353.141C350.379 192.19 348.141 194.429 348.141 197.19V226.848C348.141 229.609 350.379 231.848 353.141 231.848H398.955C401.716 231.848 403.955 229.609 403.955 226.848V197.19C403.955 194.429 401.716 192.19 398.955 192.19Z" fill="#134780" fill-opacity="0.1"/>
<path d="M465.052 192.19H419.238C416.477 192.19 414.238 194.429 414.238 197.19V226.848C414.238 229.609 416.477 231.848 419.238 231.848H465.052C467.814 231.848 470.052 229.609 470.052 226.848V197.19C470.052 194.429 467.814 192.19 465.052 192.19Z" fill="#134780" fill-opacity="0.1"/>
<path d="M273.232 112C273.232 109.239 275.471 107 278.232 107H476.801C479.562 107 481.801 109.239 481.801 112V131.969H273.232V112Z" fill="#134780" fill-opacity="0.1"/>
<path d="M284.25 123.157C287.089 123.157 289.391 120.855 289.391 118.016C289.391 115.177 287.089 112.875 284.25 112.875C281.411 112.875 279.109 115.177 279.109 118.016C279.109 120.855 281.411 123.157 284.25 123.157Z" fill="#EA525A"/>
<path d="M300.406 123.157C303.246 123.157 305.547 120.855 305.547 118.016C305.547 115.177 303.246 112.875 300.406 112.875C297.567 112.875 295.266 115.177 295.266 118.016C295.266 120.855 297.567 123.157 300.406 123.157Z" fill="#FFB700"/>
<path d="M316.565 123.157C319.404 123.157 321.705 120.855 321.705 118.016C321.705 115.177 319.404 112.875 316.565 112.875C313.725 112.875 311.424 115.177 311.424 118.016C311.424 120.855 313.725 123.157 316.565 123.157Z" fill="#3EC300"/>
<path d="M425.6 226.639C427.186 217.65 431.836 209.486 438.761 203.538C445.685 197.589 454.456 194.223 463.582 194.011L464.5 233.5L425.6 226.639Z" fill="#134780"/>
<path d="M490.974 204.185C495.29 208.083 498.692 212.885 500.937 218.25C503.183 223.614 504.216 229.408 503.963 235.218C503.71 241.028 502.177 246.71 499.474 251.859C496.771 257.008 492.965 261.497 488.326 265.005C483.688 268.513 478.333 270.953 472.642 272.152C466.952 273.35 461.067 273.278 455.408 271.939C449.749 270.601 444.455 268.029 439.904 264.408C435.354 260.787 431.659 256.206 429.084 250.992L464.5 233.5L490.974 204.185Z" fill="#134780"/>
<path d="M464.5 270.366C484.86 270.366 501.366 253.86 501.366 233.5C501.366 213.139 484.86 196.633 464.5 196.633C444.139 196.633 427.633 213.139 427.633 233.5C427.633 253.86 444.139 270.366 464.5 270.366Z" fill="white"/>
<path d="M484 225.131V225.129C484.009 222.67 482.47 220.664 480.452 219.81H480.451L467.521 214.324C467.045 214.112 466.525 214 466 214C465.48 214 464.958 214.11 464.48 214.327L451.549 219.81H451.548C449.53 220.663 447.991 222.67 448 225.129V225.13C448.036 232.192 450.93 245.405 463.53 251.44C465.088 252.187 466.898 252.187 468.456 251.44C481.07 245.405 483.964 232.193 484 225.131Z" fill="#1072BA" stroke="#134780" stroke-width="3"/>
<path fill-rule="evenodd" clip-rule="evenodd" d="M465.5 250.471V215.557C465.663 215.519 465.832 215.5 466 215.5C466.316 215.5 466.632 215.569 466.921 215.699L479.867 221.191C481.379 221.831 482.507 223.322 482.5 225.123C482.466 231.941 479.661 244.417 467.808 250.088C467.082 250.435 466.281 250.563 465.5 250.471Z" fill="#70AAD6"/>
<path d="M461.5 225.5C460.672 224.672 459.328 224.672 458.5 225.5C457.672 226.328 457.672 227.672 458.5 228.5L470.5 240.5C471.328 241.328 472.671 241.328 473.5 240.5C474.328 239.671 474.328 238.328 473.5 237.5L461.5 225.5Z" fill="#EA525A"/>
<path d="M470.5 225.5C471.328 224.672 472.672 224.672 473.5 225.5C474.328 226.328 474.328 227.672 473.5 228.5L461.5 240.5C460.672 241.328 459.329 241.328 458.5 240.5C457.672 239.671 457.672 238.328 458.5 237.5L470.5 225.5Z" fill="#EA525A"/>
<path d="M425 177C425 204.062 403.062 226 376 226C348.938 226 327 204.062 327 177C327 149.938 348.938 128 376 128C403.062 128 425 149.938 425 177ZM341.7 177C341.7 195.943 357.057 211.3 376 211.3C394.943 211.3 410.3 195.943 410.3 177C410.3 158.057 394.943 142.7 376 142.7C357.057 142.7 341.7 158.057 341.7 177Z" fill="#EC5159"/>
<path d="M380.442 185.12H371.921L370.14 151H382.223L380.442 185.12ZM370 197.063C370 194.875 370.594 193.338 371.781 192.453C372.992 191.569 374.447 191.126 376.146 191.126C377.799 191.126 379.22 191.569 380.407 192.453C381.618 193.338 382.223 194.875 382.223 197.063C382.223 199.158 381.618 200.672 380.407 201.603C379.22 202.534 377.799 203 376.146 203C374.447 203 372.992 202.534 371.781 201.603C370.594 200.672 370 199.158 370 197.063Z" fill="#EC5159"/>
<path d="M685.247 306C685.247 311.523 680.77 316 675.247 316H636.068C630.545 316 626.068 311.523 626.068 306V153.975C626.068 149.507 626.132 144.016 626.26 137.505C626.387 130.865 626.579 124.098 626.834 117.204C626.919 114.866 627.004 112.607 627.089 110.425C627.244 106.463 621.869 104.144 618.982 106.862V106.862C614.769 110.82 610.811 114.395 607.108 117.587L582.74 137.168C578.43 140.632 572.128 139.94 568.671 135.625L552.667 115.647C549.207 111.328 549.913 105.019 554.243 101.572L633.868 38.1767C635.638 36.7674 637.834 36 640.096 36H675.247C680.77 36 685.247 40.4772 685.247 46V306Z" fill="#E7EDF3"/>
</svg>
