<svg width="754" height="335" viewBox="0 0 754 335" fill="none" xmlns="http://www.w3.org/2000/svg">
<path d="M220.292 264.062C220.292 269.585 215.815 274.062 210.292 274.062H195.109C189.587 274.062 185.109 278.539 185.109 284.062V324.812C185.109 330.335 180.632 334.812 175.109 334.812H134.739C129.216 334.812 124.739 330.335 124.739 324.812V284.062C124.739 278.539 120.262 274.062 114.739 274.062H9.99999C4.47714 274.062 0 269.585 0 264.062V234.022C0 232.024 0.598837 230.071 1.71926 228.416L125.163 46.0813C127.023 43.3335 130.125 41.6875 133.443 41.6875H175.109C180.632 41.6875 185.109 46.1647 185.109 51.6875V215.943C185.109 221.466 189.587 225.943 195.109 225.943H210.292C215.815 225.943 220.292 230.42 220.292 235.943V264.062ZM114.739 225.943C120.262 225.943 124.739 221.466 124.739 215.943V176.22C124.739 167.933 125.072 155.903 125.738 140.131C126.335 126.012 126.825 117.195 127.208 113.68C127.266 113.142 126.849 112.663 126.308 112.663C125.961 112.663 125.647 112.866 125.504 113.182C120.62 123.961 114.768 134.481 107.947 144.742L64.6045 210.436C60.2179 217.085 64.9862 225.943 72.9515 225.943H114.739Z" fill="#E7EDF2"/>
<path d="M745.629 109.072C745.629 122.243 742.904 133.653 737.454 143.303C732.003 152.953 724.606 160.843 715.262 166.972C706.048 173.101 695.666 177.6 684.116 180.469V181.643C706.956 184.512 724.281 191.554 736.091 202.768C748.03 213.983 754 228.98 754 247.758C754 264.45 749.912 279.382 741.736 292.553C733.69 305.724 721.232 316.091 704.361 323.655C687.49 331.218 665.752 335 639.148 335C623.445 335 608.781 333.696 595.154 331.088C583.912 329.024 573.209 326.01 563.047 322.046C559.344 320.601 557 316.978 557 313.003V284.473C557 276.993 564.948 272.107 571.894 274.883C579.501 277.924 587.32 280.423 595.349 282.381C608.716 285.511 621.174 287.076 632.724 287.076C654.267 287.076 669.321 283.359 677.886 275.926C686.581 268.363 690.929 257.8 690.929 244.238C690.929 236.283 688.917 229.567 684.894 224.09C680.871 218.613 673.863 214.44 663.871 211.571C654.008 208.702 640.186 207.267 622.407 207.267H610.799C605.277 207.267 600.799 202.79 600.799 197.267V170.908C600.799 165.385 605.277 160.908 610.799 160.908H622.796C640.316 160.908 653.618 159.278 662.703 156.018C671.917 152.627 678.146 148.063 681.39 142.325C684.764 136.457 686.452 129.806 686.452 122.373C686.452 112.202 683.337 104.247 677.108 98.509C670.878 92.7711 660.496 89.9022 645.961 89.9022C636.877 89.9022 628.571 91.0758 621.044 93.4232C613.647 95.6401 606.964 98.3786 600.994 101.639C598.432 102.982 596.002 104.313 593.702 105.632C588.93 108.37 582.757 107.137 579.701 102.562L562.738 77.1731C559.752 72.7035 560.816 66.6411 565.385 63.8088C574.646 58.0671 585.023 53.1375 596.517 49.02C611.571 43.6733 629.48 41 650.244 41C679.573 41 702.803 46.9335 719.934 58.8004C737.064 70.6673 745.629 87.4245 745.629 109.072Z" fill="#E7EDF2"/>
<path d="M493.425 156.299C508.277 150.684 521.131 140.79 530.361 127.87C539.591 114.949 544.782 99.5822 545.278 83.7114C545.774 67.8406 541.553 52.1791 533.148 38.7074C524.743 25.2358 512.532 14.559 498.059 8.0272C483.586 1.49542 467.501 -0.597962 451.839 2.01176C436.176 4.62149 421.639 11.8171 410.066 22.6887C398.493 33.5603 390.404 47.6196 386.821 63.0886C383.238 78.5577 384.323 94.7418 389.938 109.594L425.175 96.2725C422.194 88.3892 421.619 79.7991 423.52 71.5885C425.422 63.3779 429.716 55.9156 435.858 50.1452C442.001 44.3749 449.717 40.5556 458.03 39.1704C466.343 37.7853 474.881 38.8964 482.563 42.3633C490.245 45.8302 496.726 51.4972 501.187 58.6476C505.648 65.798 507.889 74.1107 507.625 82.5345C507.362 90.9584 504.607 99.1149 499.708 105.973C494.809 112.831 487.986 118.082 480.103 121.062L493.425 156.299Z" fill="#E7EDF2"/>
<circle cx="377.5" cy="191.5" r="143.5" fill="#E7EDF2"/>
<circle cx="376.976" cy="192.019" r="96.1866" fill="#1072BA"/>
<rect x="355" y="86" width="44" height="164" rx="5" fill="#134780"/>
<mask id="mask0_754_209894" style="mask-type:alpha" maskUnits="userSpaceOnUse" x="280" y="95" width="194" height="194">
<circle cx="376.991" cy="192.019" r="96.1866" fill="#1072BA"/>
</mask>
<g mask="url(#mask0_754_209894)">
<rect x="355" y="112" width="44" height="187" rx="5" fill="#134780"/>
</g>
<rect x="260" y="106" width="234" height="147" rx="10" fill="white" stroke="#134780" stroke-width="10"/>
<circle cx="377" cy="120" r="4" fill="#134780"/>
<circle cx="377" cy="238" r="4" fill="#134780"/>
<path d="M426 179C426 206.062 404.062 228 377 228C349.938 228 328 206.062 328 179C328 151.938 349.938 130 377 130C404.062 130 426 151.938 426 179ZM342.7 179C342.7 197.943 358.057 213.3 377 213.3C395.943 213.3 411.3 197.943 411.3 179C411.3 160.057 395.943 144.7 377 144.7C358.057 144.7 342.7 160.057 342.7 179Z" fill="#EC5159"/>
<path d="M347.836 149.832L406.169 208.165" stroke="#EC5159" stroke-width="10"/>
<path d="M448.629 241.169C449.572 235.822 451.56 230.712 454.479 226.132C457.398 221.552 461.191 217.592 465.64 214.477C470.09 211.363 475.11 209.155 480.414 207.98C485.717 206.805 491.2 206.685 496.55 207.629L489.365 248.352L448.629 241.169Z" fill="#134780"/>
<path d="M517.09 217.663C521.61 221.743 525.172 226.771 527.523 232.387C529.875 238.003 530.956 244.068 530.691 250.15C530.427 256.232 528.821 262.181 525.991 267.571C523.16 272.962 519.174 277.661 514.317 281.333C509.46 285.005 503.851 287.56 497.892 288.815C491.933 290.07 485.77 289.994 479.844 288.593C473.917 287.191 468.373 284.499 463.608 280.708C458.843 276.918 454.974 272.122 452.277 266.663L489.365 248.352L517.09 217.663Z" fill="#134780"/>
<ellipse cx="489.365" cy="248.351" rx="38.6076" ry="38.5948" fill="white"/>
<path d="M507.5 240.631L507.5 240.629C507.509 238.17 505.97 236.164 503.952 235.31C503.952 235.31 503.951 235.31 503.951 235.31L491.021 229.824C490.545 229.612 490.025 229.5 489.5 229.5C488.98 229.5 488.458 229.61 487.98 229.827L475.049 235.31C475.049 235.31 475.049 235.31 475.048 235.31C473.03 236.163 471.491 238.17 471.5 240.629L471.5 240.63C471.536 247.692 474.43 260.905 487.03 266.94L487.03 266.94C488.588 267.687 490.398 267.687 491.956 266.94C504.57 260.905 507.464 247.693 507.5 240.631Z" fill="#1072BA" stroke="#134780" stroke-width="3"/>
<rect x="363" y="80" width="29" height="6" fill="#134780"/>
<circle cx="377.5" cy="70.5" r="17.5" fill="#134780"/>
<path fill-rule="evenodd" clip-rule="evenodd" d="M489 265.971V231.057C489.163 231.019 489.332 231 489.5 231C489.816 231 490.132 231.069 490.421 231.199L503.367 236.691C504.879 237.331 506.007 238.822 506 240.623C505.966 247.441 503.161 259.917 491.308 265.588C490.582 265.935 489.781 266.063 489 265.971Z" fill="#70AAD6"/>
</svg>
