<svg width="752" height="320" viewBox="0 0 752 320" fill="none" xmlns="http://www.w3.org/2000/svg">
    <path
        d="M226.359 247.97C226.359 253.493 221.881 257.97 216.359 257.97H202.762C197.239 257.97 192.762 262.447 192.762 267.97V306C192.762 311.523 188.285 316 182.762 316H145.114C139.591 316 135.114 311.523 135.114 306V267.97C135.114 262.447 130.637 257.97 125.114 257.97H26C20.4772 257.97 16 253.493 16 247.97V219.859C16 217.861 16.5985 215.909 17.7184 214.254L135.385 40.3951C137.245 37.6466 140.347 36 143.666 36H182.762C188.285 36 192.762 40.4772 192.762 46V202.005C192.762 207.528 197.239 212.005 202.762 212.005H216.359C221.881 212.005 226.359 216.483 226.359 222.005V247.97ZM125.114 212.005C130.637 212.005 135.114 207.528 135.114 202.005V164.509C135.114 156.593 135.432 145.102 136.069 130.036C136.638 116.549 137.106 108.126 137.471 104.769C137.527 104.255 137.129 103.798 136.612 103.798C136.281 103.798 135.981 103.992 135.845 104.293C131.181 114.59 125.593 124.639 119.08 134.44L78.1484 196.5C73.7632 203.148 78.5316 212.005 86.4962 212.005H125.114Z"
        fill="#E7EDF3" />
    <path
        d="M736.359 247.97C736.359 253.493 731.881 257.97 726.359 257.97H712.762C707.239 257.97 702.762 262.447 702.762 267.97V306C702.762 311.523 698.285 316 692.762 316H655.114C649.591 316 645.114 311.523 645.114 306V267.97C645.114 262.447 640.637 257.97 635.114 257.97H536C530.477 257.97 526 253.493 526 247.97V219.859C526 217.861 526.599 215.909 527.718 214.254L645.385 40.3951C647.245 37.6466 650.347 36 653.666 36H692.762C698.285 36 702.762 40.4772 702.762 46V202.005C702.762 207.528 707.239 212.005 712.762 212.005H726.359C731.881 212.005 736.359 216.483 736.359 222.005V247.97ZM635.114 212.005C640.637 212.005 645.114 207.528 645.114 202.005V164.509C645.114 156.593 645.432 145.102 646.069 130.036C646.638 116.549 647.106 108.126 647.471 104.769C647.527 104.255 647.129 103.798 646.612 103.798C646.281 103.798 645.981 103.992 645.845 104.293C641.181 114.59 635.593 124.639 629.08 134.44L588.148 196.5C583.763 203.148 588.532 212.005 596.496 212.005H635.114Z"
        fill="#E7EDF3" />
    <circle cx="377.83" cy="177.898" r="141.898" fill="#E7EDF3" />
    <rect width="61.431" height="131.349" rx="28.5"
        transform="matrix(-0.642788 -0.766044 -0.766044 0.642788 586.396 47.0591)" fill="#E7EDF3" />
    <circle cx="377.5" cy="177.5" r="103.5" fill="#1072BA" />
    <mask id="mask0" style="mask-type:alpha" maskUnits="userSpaceOnUse" x="273" y="74" width="208" height="207">
        <circle cx="377.5" cy="177.5" r="103.5" fill="#1072BA" />
    </mask>
    <g mask="url(#mask0)">
        <rect x="360" y="228.207" width="35.6972" height="87.9681" fill="#134780" />
    </g>
    <rect x="268.233" y="102" width="218.569" height="146.598" rx="10" fill="white" stroke="#134780"
        stroke-width="10" />
    <rect x="284.984" y="143.72" width="51.4077" height="88.1276" rx="5" fill="#134780" fill-opacity="0.1" />
    <rect x="348.141" y="143.72" width="121.91" height="39.6574" rx="5" fill="#134780" fill-opacity="0.1" />
    <rect x="348.141" y="192.19" width="55.8141" height="39.6574" rx="5" fill="#134780" fill-opacity="0.1" />
    <rect x="414.238" y="192.19" width="55.8141" height="39.6574" rx="5" fill="#134780" fill-opacity="0.1" />
    <path
        d="M273.233 112C273.233 109.239 275.472 107 278.233 107H476.802C479.563 107 481.802 109.239 481.802 112V131.969H273.233V112Z"
        fill="#134780" fill-opacity="0.1" />
    <circle cx="284.251" cy="118.016" r="5.14077" fill="#EA525A" />
    <circle cx="300.407" cy="118.016" r="5.14077" fill="#FFB700" />
    <circle cx="316.564" cy="118.016" r="5.14077" fill="#3EC300" />
    <path
        d="M425.6 226.639C427.186 217.65 431.836 209.486 438.761 203.538C445.685 197.589 454.456 194.223 463.582 194.011L464.5 233.5L425.6 226.639Z"
        fill="#134780" />
    <path
        d="M490.974 204.185C495.29 208.083 498.692 212.885 500.937 218.25C503.183 223.614 504.216 229.408 503.963 235.218C503.71 241.028 502.177 246.71 499.474 251.859C496.771 257.008 492.965 261.497 488.326 265.005C483.688 268.513 478.333 270.953 472.642 272.152C466.952 273.35 461.067 273.278 455.408 271.939C449.749 270.601 444.455 268.029 439.904 264.408C435.354 260.787 431.659 256.206 429.084 250.992L464.5 233.5L490.974 204.185Z"
        fill="#134780" />
    <circle cx="464.5" cy="233.5" r="36.8667" fill="white" />
    <rect x="449.577" y="223.543" width="7.02222" height="35.1111" rx="3.51111" transform="rotate(-45 449.577 223.543)"
        fill="#EA525A" />
    <rect width="7.02222" height="35.1111" rx="3.51111"
        transform="matrix(-0.707107 -0.707107 -0.707107 0.707107 479.37 223.543)" fill="#EA525A" />
    <rect x="16" y="315" width="720" height="5" rx="2.5" fill="#134780" />
</svg>