<svg width="720" height="320" viewBox="0 0 720 320" fill="none" xmlns="http://www.w3.org/2000/svg">
    <g clip-path="url(#clip0)">
        <path
            d="M99.9591 139.757C127.445 139.757 149.29 147.251 165.496 162.24C181.832 177.229 190 197.76 190 223.833C190 254.692 180.212 278.435 160.635 295.061C141.058 311.687 113.054 320 76.6223 320C47.8997 320 24.2006 315.898 5.52476 307.695C2.08744 306.186 0 302.712 0 298.958V271.049C0 263.558 8.00055 258.619 15.0117 261.257C21.434 263.674 28.3578 265.81 35.783 267.665C49.3961 270.94 62.2962 272.578 74.4831 272.578C111.174 272.578 129.519 257.967 129.519 228.745C129.519 200.909 110.525 186.991 72.5384 186.991C65.667 186.991 58.0826 187.683 49.7851 189.069C43.422 190.035 37.9738 191.075 33.4406 192.189C30.9365 192.804 28.2833 192.56 25.9968 191.368L11.4881 183.804C7.94025 181.955 5.83629 178.169 6.13945 174.179L15.6334 49.2423C16.0296 44.0284 20.3757 40 25.6047 40H160.553C166.076 40 170.553 44.4772 170.553 50V79.5007C170.553 85.0235 166.076 89.5007 160.553 89.5007H78.1163C72.9668 89.5007 68.6592 93.4113 68.1629 98.5368L64.4554 136.823C64.1219 140.267 67.197 143.062 70.5937 142.402C78.5022 140.639 88.2907 139.757 99.9591 139.757Z"
            fill="#E7EDF3" />
        <path
            d="M498 203.669C498 272.639 486.658 323.691 463.973 356.825C441.468 389.96 406.72 406.527 359.73 406.527C314.18 406.527 279.793 389.42 256.568 355.205C233.523 320.99 222 270.478 222 203.669C222 133.978 233.252 82.656 255.757 49.7016C278.262 16.5672 312.92 0 359.73 0C405.28 0 439.667 17.2875 462.892 51.8626C486.297 86.4376 498 137.04 498 203.669ZM304.908 203.669C304.908 252.11 309.049 286.865 317.331 307.934C325.793 328.823 339.926 339.268 359.73 339.268C379.174 339.268 393.217 328.643 401.859 307.394C410.501 286.145 414.822 251.57 414.822 203.669C414.822 155.228 410.411 120.472 401.589 99.4033C392.947 78.154 378.994 67.5294 359.73 67.5294C340.106 67.5294 326.063 78.154 317.601 99.4033C309.139 120.472 304.908 155.228 304.908 203.669Z"
            fill="#E7EDF3" />
    </g>
    <path
        d="M592.854 163.721C592.854 158.198 597.332 153.721 602.854 153.721H621.408C644.036 153.721 655.35 142.187 655.35 119.118C655.35 110.14 652.656 102.846 647.268 97.2345C641.881 91.4986 634.279 88.6306 624.461 88.6306C616.44 88.6306 609.436 91.0621 603.45 95.9252C600.433 98.4263 598.191 101.241 596.726 104.369C594.383 109.37 590.173 114.068 584.65 114.068H544.13C538.608 114.068 534.047 109.57 534.781 104.096C536.171 93.7337 539.785 84.2767 545.624 75.7248C553.286 64.5023 563.882 55.7738 577.41 49.5391C591.059 43.1797 606.024 40 622.306 40C651.399 40 674.266 46.9205 690.907 60.7615C707.549 74.6025 715.87 93.6183 715.87 117.809C715.87 129.53 712.398 140.628 705.454 151.102C698.629 161.452 688.633 169.869 675.463 176.353C689.351 181.59 700.246 189.57 708.147 200.294C716.049 210.893 720 224.048 720 239.76C720 264.075 711.021 283.527 693.062 298.116C675.104 312.705 651.519 320 622.306 320C605.186 320 589.263 316.633 574.537 309.9C559.931 303.042 548.856 293.627 541.314 281.657C535.446 272.248 531.861 261.858 530.558 250.487C529.929 245 534.477 240.508 540 240.508H580.879C586.402 240.508 590.67 245.122 592.545 250.317C594.114 254.664 596.791 258.627 600.577 262.204C607.042 268.314 615.003 271.369 624.461 271.369C635.117 271.369 643.617 268.314 649.962 262.204C656.307 255.97 659.48 248.052 659.48 238.45C659.48 224.734 656.188 215.008 649.603 209.272C643.018 203.536 633.919 200.668 622.306 200.668H602.854C597.332 200.668 592.854 196.191 592.854 190.668V163.721Z"
        fill="#E7EDF3" />
    <path
        d="M290.5 201.5C280.5 227 231.871 226.5 224.871 204.5C215.803 176 228.193 147.669 212.872 132C190.871 109.5 142.2 147.766 177.739 195.781"
        stroke="#134780" stroke-width="3" />
    <path d="M193.274 214.589L186.072 205.626" stroke="#134780" stroke-width="2" stroke-linecap="round" />
    <rect x="184.121" y="213.622" width="25.9696" height="12.8402" rx="6.42012"
        transform="rotate(-128.342 184.121 213.622)" fill="#FFB700" stroke="#134780" stroke-width="2" />
    <path d="M289.924 142.625C278.728 153.963 238.47 174.53 215.425 162.2C176 141.105 190.5 89.5 190.5 89.5"
        stroke="#134780" stroke-width="3" />
    <path d="M184.665 72.3316L188.504 59.6221" stroke="#134780" stroke-width="2" stroke-linecap="round" />
    <path d="M204.869 78.4341L208.708 65.7246" stroke="#134780" stroke-width="2" stroke-linecap="round" />
    <path d="M195.094 75.4815L198.932 62.772" stroke="#134780" stroke-width="2" stroke-linecap="round" />
    <rect x="179.964" y="65.5998" width="34" height="19.7021" rx="4" transform="rotate(16.8064 179.964 65.5998)"
        fill="#FFB700" stroke="#134780" stroke-width="2" />
    <path
        d="M408.371 262.5H406.871V264V317V318.5H408.371H480.371H481.871V317V274C481.871 267.649 476.723 262.5 470.371 262.5H408.371Z"
        stroke="#134780" stroke-width="3" />
    <path
        d="M408.371 224.5H406.871V226V317V318.5H408.371H509.371H510.871V317V236C510.871 229.649 505.723 224.5 499.371 224.5H408.371Z"
        stroke="#134780" stroke-width="3" />
    <path
        d="M408.371 198.5H406.871V200V317V318.5H408.371H509.371H510.871V317V210C510.871 203.649 505.723 198.5 499.371 198.5H408.371Z"
        stroke="#134780" stroke-width="3" />
    <path
        d="M316.811 247.5H318.311V249V317V318.5H316.811H239.811H238.311V317V259C238.311 252.649 243.46 247.5 249.811 247.5H316.811Z"
        stroke="#134780" stroke-width="3" />
    <path d="M442.371 133.5C442.371 133.5 441.001 168 468.371 168C519.62 168 481.871 62.5 532.872 77.5" stroke="#134780"
        stroke-width="3" />
    <path d="M558.011 91.0088L547.322 85.3708" stroke="#134780" stroke-width="2" stroke-linecap="round" />
    <rect x="1.34782" y="-0.428238" width="27.1926" height="13.3934" rx="6.69668"
        transform="matrix(-0.888028 -0.45979 -0.45979 0.888028 556.114 82.7798)" fill="#FFB700" stroke="#134780"
        stroke-width="2" />
    <path
        d="M485.371 32.1176H463.371L473.871 21L482.921 11.5L491.971 2L478.771 26.4706H496.371L469.238 66L485.371 32.1176Z"
        fill="#FFB700" />
    <path
        d="M320 49.5H321.5V48V38C321.5 34.4101 318.59 31.5 315 31.5H291C287.41 31.5 284.5 34.4101 284.5 38V48V49.5H286H320Z"
        fill="#1072BA" stroke="#134780" stroke-width="3" />
    <path
        d="M436 49.5H437.5V48V38C437.5 34.4101 434.59 31.5 431 31.5H407C403.41 31.5 400.5 34.4101 400.5 38V48V49.5H402H436Z"
        fill="#1072BA" stroke="#134780" stroke-width="3" />
    <path d="M269 58C269 52.4771 273.477 48 279 48H442C447.523 48 452 52.4772 452 58V320H269V58Z" fill="#1072BA" />
    <path d="M337.371 48H278.809C273.286 48 268.809 52.4772 268.809 58V93M268.809 298V129.5" stroke="#134780"
        stroke-width="3" stroke-linecap="round" />
    <rect x="384.809" y="270" width="55" height="4" rx="2" fill="#134780" />
    <rect x="362.809" y="282" width="77" height="4" rx="2" fill="#134780" />
    <rect x="280.809" y="62" width="72" height="4" rx="2" fill="#134780" />
    <path
        d="M367.809 64C367.809 62.8954 368.704 62 369.809 62H437.809C438.913 62 439.809 62.8954 439.809 64C439.809 65.1046 438.913 66 437.809 66H369.809C368.704 66 367.809 65.1046 367.809 64Z"
        fill="#134780" />
    <rect x="280.809" y="222" width="159" height="36" rx="5" fill="#134780" />
    <rect x="287.809" y="229" width="22" height="22" rx="2" fill="white" />
    <rect x="403.809" y="231" width="7" height="7" rx="1" fill="white" />
    <rect x="414.809" y="231" width="7" height="7" rx="1" fill="#3EC300" />
    <rect x="425.809" y="231" width="7" height="7" rx="1" fill="#FFB700" />
    <rect x="403.809" y="242" width="7" height="7" rx="1" fill="#3EC300" />
    <rect x="414.809" y="242" width="7" height="7" rx="1" fill="white" />
    <rect x="425.809" y="242" width="7" height="7" rx="1" fill="#FFB700" />
    <circle cx="329.809" cy="240" r="4" fill="#FFB700" />
    <circle cx="349.809" cy="240" r="4" fill="white" />
    <circle cx="369.809" cy="240" r="4" fill="#FFB700" />
    <rect x="280.809" y="174" width="159" height="36" rx="5" fill="#134780" />
    <rect x="287.809" y="181" width="22" height="22" rx="2" fill="white" />
    <rect x="403.809" y="183" width="7" height="7" rx="1" fill="#FFB700" />
    <rect x="414.809" y="183" width="7" height="7" rx="1" fill="#3EC300" />
    <rect x="425.809" y="183" width="7" height="7" rx="1" fill="#FFB700" />
    <rect x="403.809" y="194" width="7" height="7" rx="1" fill="white" />
    <rect x="414.809" y="194" width="7" height="7" rx="1" fill="#FFB700" />
    <rect x="425.809" y="194" width="7" height="7" rx="1" fill="white" />
    <circle cx="329.809" cy="192" r="4" fill="#3EC300" />
    <circle cx="349.809" cy="192" r="4" fill="white" />
    <circle cx="369.809" cy="192" r="4" fill="#FFB700" />
    <rect x="280.809" y="126" width="159" height="36" rx="5" fill="#134780" />
    <rect x="287.809" y="133" width="22" height="22" rx="2" fill="white" />
    <rect x="403.809" y="135" width="7" height="7" rx="1" fill="white" />
    <rect x="414.809" y="135" width="7" height="7" rx="1" fill="#FFB700" />
    <rect x="425.809" y="135" width="7" height="7" rx="1" fill="#FFB700" />
    <rect x="403.809" y="146" width="7" height="7" rx="1" fill="#3EC300" />
    <rect x="414.809" y="146" width="7" height="7" rx="1" fill="white" />
    <rect x="425.809" y="146" width="7" height="7" rx="1" fill="#FFB700" />
    <circle cx="329.809" cy="144" r="4" fill="white" />
    <circle cx="349.809" cy="144" r="4" fill="#3EC300" />
    <circle cx="369.809" cy="144" r="4" fill="#3EC300" />
    <rect x="280.809" y="78" width="159" height="36" rx="5" fill="#134780" />
    <rect x="287.809" y="85" width="22" height="22" rx="2" fill="white" />
    <rect x="403.809" y="87" width="7" height="7" rx="1" fill="#3EC300" />
    <rect x="414.809" y="87" width="7" height="7" rx="1" fill="#3EC300" />
    <rect x="425.809" y="87" width="7" height="7" rx="1" fill="#FFB700" />
    <rect x="403.809" y="98" width="7" height="7" rx="1" fill="#3EC300" />
    <rect x="414.809" y="98" width="7" height="7" rx="1" fill="white" />
    <rect x="425.809" y="98" width="7" height="7" rx="1" fill="white" />
    <circle cx="329.809" cy="96" r="4" fill="#FFB700" />
    <circle cx="349.809" cy="96" r="4" fill="#3EC300" />
    <circle cx="369.809" cy="96" r="4" fill="white" />
    <path d="M255 308C255 302.477 259.477 298 265 298H456C461.523 298 466 302.477 466 308V320H255V308Z"
        fill="#134780" />
    <rect y="315" width="720" height="5" rx="2.5" fill="#134780" />
    <defs>
        <clipPath id="clip0">
            <rect width="720" height="320" fill="white" />
        </clipPath>
    </defs>
</svg>