<svg width="2783" height="650" viewBox="0 0 2783 650" fill="none" xmlns="http://www.w3.org/2000/svg">
<rect y="298" width="65" height="138" rx="32.5" fill="white"/>
<rect x="105" y="330" width="65" height="208" rx="32.5" fill="white"/>
<rect x="210" y="161" width="68" height="275" rx="34" fill="white"/>
<rect x="318" y="112" width="68" height="275" rx="34" fill="white"/>
<rect x="426" y="193" width="65" height="275" rx="32.5" fill="white"/>
<g clip-path="url(#clip0_95_117)">
<path d="M2030.07 377.247C2022.1 373.57 2015.67 366.678 2012.91 357.794C2007.71 341.253 2017.05 323.638 2033.59 318.584C2102.67 297.295 2141.42 224.081 2120.28 155.158C2110.94 124.985 2091.18 99.2532 2064.38 82.5583C2061.16 80.5671 2058.1 78.8823 2054.88 77.1975C2052.89 76.1254 2050.59 75.0532 2048.14 73.9811C2019.5 61.2685 1987.03 59.2773 1956.86 68.4671C1916.27 81.0266 1884.1 112.578 1870.93 152.861C1869.86 156.23 1868.94 159.446 1868.17 162.816C1867.72 164.041 1867.41 165.574 1867.25 166.798C1862.66 188.548 1863.73 210.91 1870.32 231.893C1875.37 248.435 1866.03 266.049 1849.49 271.103C1832.95 276.311 1815.33 266.967 1810.28 250.426C1800.63 219.334 1799.1 186.251 1805.68 154.545C1806.14 152.401 1806.6 149.951 1807.21 147.5C1808.44 142.599 1809.82 137.851 1811.35 133.256C1830.8 73.6747 1878.44 26.9597 1938.32 8.58005C1983.05 -5.20472 2031.14 -2.2946 2073.72 16.6977C2077.09 18.2294 2080.31 19.761 2083.52 21.2927C2088.42 23.8965 2093.17 26.5002 2097.61 29.4104C2137.13 53.9166 2166.54 92.0545 2180.17 136.625C2211.58 238.632 2154.13 347.225 2052.12 378.624C2044.47 380.922 2036.81 380.157 2030.07 377.247Z" fill="white"/>
<path d="M1995.29 85.3129C1937.39 85.3129 1890.68 132.181 1890.68 189.923C1890.68 247.819 1937.39 294.536 1995.29 294.536C2053.03 294.536 2099.9 247.819 2099.9 189.923C2099.9 132.181 2053.03 85.3129 1995.29 85.3129ZM1995.29 227.755C1974.3 227.755 1957.46 210.754 1957.46 189.923C1957.46 169.093 1974.3 152.246 1995.29 152.246C2016.12 152.246 2032.97 169.093 2032.97 189.923C2032.97 210.754 2016.12 227.755 1995.29 227.755Z" fill="white"/>
<path d="M705.971 359.326H613V20.5261H700.61L839.99 199.575V20.5261H1511.31L1592.02 151.788L1672.9 20.5261H1771.99V359.326H1678.71V164.807L1592.02 297.447L1503.96 165.725V359.326H1412.06V102.928H1309.44V359.326H1215.55V102.928H934.032V151.788H1096.54V225.765H934.032V279.527H1115.99V359.326H850.557L705.971 173.537V359.326Z" fill="white"/>
<path d="M2311.45 359.327H2218.48V20.6808H2306.08L2445.46 199.577V20.6808H2538.28V158.069L2656.98 20.6808H2768.34L2640.13 166.339L2772.77 359.327H2660.05L2574.73 233.579L2537.2 272.942V359.327H2456.02L2311.45 173.539V359.327Z" fill="white"/>
</g>
<mask id="path-10-outside-1_95_117" maskUnits="userSpaceOnUse" x="610" y="418" width="2068" height="195" fill="black">
<rect fill="white" x="610" y="418" width="2068" height="195"/>
<path d="M747.125 606L730.625 557.25H661.875L645.375 606H616.25L681.375 425.625H711.625L776.75 606H747.125ZM695.875 455.625L669 534.75H723.5L696.625 455.625H695.875ZM916.035 606H888.785V425.625H914.16L1007.66 558.625H1008.66V425.625H1035.91V606H1010.66L917.16 473.125H916.035V606ZM1278.95 606L1262.45 557.25H1193.7L1177.2 606H1148.07L1213.2 425.625H1243.45L1308.57 606H1278.95ZM1227.7 455.625L1200.82 534.75H1255.32L1228.45 455.625H1227.7ZM1532.6 581.75V606H1420.6V425.625H1448.6V581.75H1532.6ZM1700.39 606H1672.39V532.125L1608.89 425.625H1640.14L1686.14 505.25H1687.02L1733.02 425.625H1764.02L1700.39 532.125V606ZM1948.93 606H1920.93V449.75H1865.68V425.625H2004.05V449.75H1948.93V606ZM2147.08 606H2119.08V425.625H2147.08V606ZM2348.62 609C2297.99 609 2265.99 573.25 2265.99 515.75C2265.99 458.625 2298.24 422.625 2348.62 422.625C2389.49 422.625 2420.37 447.75 2425.12 485.375H2397.37C2392.37 462.25 2373.12 447.125 2348.62 447.125C2315.87 447.125 2294.62 474 2294.62 515.75C2294.62 557.875 2315.62 584.5 2348.74 584.5C2373.87 584.5 2391.74 571.625 2397.37 549.875H2425.24C2418.37 587.125 2390.12 609 2348.62 609ZM2534.66 555.75H2562.28C2564.28 573.625 2581.66 585.375 2605.41 585.375C2628.16 585.375 2644.53 573.625 2644.53 557.5C2644.53 543.5 2634.66 535.125 2611.28 529.375L2587.91 523.75C2554.78 515.75 2539.41 500.25 2539.41 475.125C2539.41 444 2566.53 422.625 2605.03 422.625C2643.16 422.625 2669.28 444 2670.16 475.125H2642.91C2641.28 457.125 2626.41 446.25 2604.66 446.25C2582.91 446.25 2568.03 457.25 2568.03 473.25C2568.03 486 2577.53 493.5 2600.78 499.25L2620.66 504.125C2657.66 512.875 2673.03 527.75 2673.03 554.125C2673.03 587.875 2646.16 609 2603.41 609C2563.41 609 2536.41 588.375 2534.66 555.75Z"/>
</mask>
<path d="M747.125 606L730.625 557.25H661.875L645.375 606H616.25L681.375 425.625H711.625L776.75 606H747.125ZM695.875 455.625L669 534.75H723.5L696.625 455.625H695.875ZM916.035 606H888.785V425.625H914.16L1007.66 558.625H1008.66V425.625H1035.91V606H1010.66L917.16 473.125H916.035V606ZM1278.95 606L1262.45 557.25H1193.7L1177.2 606H1148.07L1213.2 425.625H1243.45L1308.57 606H1278.95ZM1227.7 455.625L1200.82 534.75H1255.32L1228.45 455.625H1227.7ZM1532.6 581.75V606H1420.6V425.625H1448.6V581.75H1532.6ZM1700.39 606H1672.39V532.125L1608.89 425.625H1640.14L1686.14 505.25H1687.02L1733.02 425.625H1764.02L1700.39 532.125V606ZM1948.93 606H1920.93V449.75H1865.68V425.625H2004.05V449.75H1948.93V606ZM2147.08 606H2119.08V425.625H2147.08V606ZM2348.62 609C2297.99 609 2265.99 573.25 2265.99 515.75C2265.99 458.625 2298.24 422.625 2348.62 422.625C2389.49 422.625 2420.37 447.75 2425.12 485.375H2397.37C2392.37 462.25 2373.12 447.125 2348.62 447.125C2315.87 447.125 2294.62 474 2294.62 515.75C2294.62 557.875 2315.62 584.5 2348.74 584.5C2373.87 584.5 2391.74 571.625 2397.37 549.875H2425.24C2418.37 587.125 2390.12 609 2348.62 609ZM2534.66 555.75H2562.28C2564.28 573.625 2581.66 585.375 2605.41 585.375C2628.16 585.375 2644.53 573.625 2644.53 557.5C2644.53 543.5 2634.66 535.125 2611.28 529.375L2587.91 523.75C2554.78 515.75 2539.41 500.25 2539.41 475.125C2539.41 444 2566.53 422.625 2605.03 422.625C2643.16 422.625 2669.28 444 2670.16 475.125H2642.91C2641.28 457.125 2626.41 446.25 2604.66 446.25C2582.91 446.25 2568.03 457.25 2568.03 473.25C2568.03 486 2577.53 493.5 2600.78 499.25L2620.66 504.125C2657.66 512.875 2673.03 527.75 2673.03 554.125C2673.03 587.875 2646.16 609 2603.41 609C2563.41 609 2536.41 588.375 2534.66 555.75Z" fill="white"/>
<path d="M747.125 606L743.336 607.282L744.256 610H747.125V606ZM730.625 557.25L734.414 555.968L733.494 553.25H730.625V557.25ZM661.875 557.25V553.25H659.006L658.086 555.968L661.875 557.25ZM645.375 606V610H648.244L649.164 607.282L645.375 606ZM616.25 606L612.488 604.642L610.553 610H616.25V606ZM681.375 425.625V421.625H678.566L677.613 424.267L681.375 425.625ZM711.625 425.625L715.387 424.267L714.434 421.625H711.625V425.625ZM776.75 606V610H782.447L780.512 604.642L776.75 606ZM695.875 455.625V451.625H693.009L692.088 454.339L695.875 455.625ZM669 534.75L665.213 533.464L663.417 538.75H669V534.75ZM723.5 534.75V538.75H729.083L727.287 533.464L723.5 534.75ZM696.625 455.625L700.412 454.339L699.491 451.625H696.625V455.625ZM750.914 604.718L734.414 555.968L726.836 558.532L743.336 607.282L750.914 604.718ZM730.625 553.25H661.875V561.25H730.625V553.25ZM658.086 555.968L641.586 604.718L649.164 607.282L665.664 558.532L658.086 555.968ZM645.375 602H616.25V610H645.375V602ZM620.012 607.358L685.137 426.983L677.613 424.267L612.488 604.642L620.012 607.358ZM681.375 429.625H711.625V421.625H681.375V429.625ZM707.863 426.983L772.988 607.358L780.512 604.642L715.387 424.267L707.863 426.983ZM776.75 602H747.125V610H776.75V602ZM692.088 454.339L665.213 533.464L672.787 536.036L699.662 456.911L692.088 454.339ZM669 538.75H723.5V530.75H669V538.75ZM727.287 533.464L700.412 454.339L692.838 456.911L719.713 536.036L727.287 533.464ZM696.625 451.625H695.875V459.625H696.625V451.625ZM916.035 606V610H920.035V606H916.035ZM888.785 606H884.785V610H888.785V606ZM888.785 425.625V421.625H884.785V425.625H888.785ZM914.16 425.625L917.432 423.325L916.238 421.625H914.16V425.625ZM1007.66 558.625L1004.39 560.925L1005.58 562.625H1007.66V558.625ZM1008.66 558.625V562.625H1012.66V558.625H1008.66ZM1008.66 425.625V421.625H1004.66V425.625H1008.66ZM1035.91 425.625H1039.91V421.625H1035.91V425.625ZM1035.91 606V610H1039.91V606H1035.91ZM1010.66 606L1007.39 608.302L1008.58 610H1010.66V606ZM917.16 473.125L920.431 470.823L919.236 469.125H917.16V473.125ZM916.035 473.125V469.125H912.035V473.125H916.035ZM916.035 602H888.785V610H916.035V602ZM892.785 606V425.625H884.785V606H892.785ZM888.785 429.625H914.16V421.625H888.785V429.625ZM910.888 427.925L1004.39 560.925L1010.93 556.325L917.432 423.325L910.888 427.925ZM1007.66 562.625H1008.66V554.625H1007.66V562.625ZM1012.66 558.625V425.625H1004.66V558.625H1012.66ZM1008.66 429.625H1035.91V421.625H1008.66V429.625ZM1031.91 425.625V606H1039.91V425.625H1031.91ZM1035.91 602H1010.66V610H1035.91V602ZM1013.93 603.698L920.431 470.823L913.889 475.427L1007.39 608.302L1013.93 603.698ZM917.16 469.125H916.035V477.125H917.16V469.125ZM912.035 473.125V606H920.035V473.125H912.035ZM1278.95 606L1275.16 607.282L1276.08 610H1278.95V606ZM1262.45 557.25L1266.23 555.968L1265.31 553.25H1262.45V557.25ZM1193.7 557.25V553.25H1190.83L1189.91 555.968L1193.7 557.25ZM1177.2 606V610H1180.06L1180.98 607.282L1177.2 606ZM1148.07 606L1144.31 604.642L1142.37 610H1148.07V606ZM1213.2 425.625V421.625H1210.39L1209.43 424.267L1213.2 425.625ZM1243.45 425.625L1247.21 424.267L1246.25 421.625H1243.45V425.625ZM1308.57 606V610H1314.27L1312.33 604.642L1308.57 606ZM1227.7 455.625V451.625H1224.83L1223.91 454.339L1227.7 455.625ZM1200.82 534.75L1197.03 533.464L1195.24 538.75H1200.82V534.75ZM1255.32 534.75V538.75H1260.9L1259.11 533.464L1255.32 534.75ZM1228.45 455.625L1232.23 454.339L1231.31 451.625H1228.45V455.625ZM1282.73 604.718L1266.23 555.968L1258.66 558.532L1275.16 607.282L1282.73 604.718ZM1262.45 553.25H1193.7V561.25H1262.45V553.25ZM1189.91 555.968L1173.41 604.718L1180.98 607.282L1197.48 558.532L1189.91 555.968ZM1177.2 602H1148.07V610H1177.2V602ZM1151.83 607.358L1216.96 426.983L1209.43 424.267L1144.31 604.642L1151.83 607.358ZM1213.2 429.625H1243.45V421.625H1213.2V429.625ZM1239.68 426.983L1304.81 607.358L1312.33 604.642L1247.21 424.267L1239.68 426.983ZM1308.57 602H1278.95V610H1308.57V602ZM1223.91 454.339L1197.03 533.464L1204.61 536.036L1231.48 456.911L1223.91 454.339ZM1200.82 538.75H1255.32V530.75H1200.82V538.75ZM1259.11 533.464L1232.23 454.339L1224.66 456.911L1251.53 536.036L1259.11 533.464ZM1228.45 451.625H1227.7V459.625H1228.45V451.625ZM1532.6 581.75H1536.6V577.75H1532.6V581.75ZM1532.6 606V610H1536.6V606H1532.6ZM1420.6 606H1416.6V610H1420.6V606ZM1420.6 425.625V421.625H1416.6V425.625H1420.6ZM1448.6 425.625H1452.6V421.625H1448.6V425.625ZM1448.6 581.75H1444.6V585.75H1448.6V581.75ZM1528.6 581.75V606H1536.6V581.75H1528.6ZM1532.6 602H1420.6V610H1532.6V602ZM1424.6 606V425.625H1416.6V606H1424.6ZM1420.6 429.625H1448.6V421.625H1420.6V429.625ZM1444.6 425.625V581.75H1452.6V425.625H1444.6ZM1448.6 585.75H1532.6V577.75H1448.6V585.75ZM1700.39 606V610H1704.39V606H1700.39ZM1672.39 606H1668.39V610H1672.39V606ZM1672.39 532.125H1676.39V531.023L1675.83 530.077L1672.39 532.125ZM1608.89 425.625V421.625H1601.85L1605.45 427.673L1608.89 425.625ZM1640.14 425.625L1643.6 423.624L1642.45 421.625H1640.14V425.625ZM1686.14 505.25L1682.68 507.251L1683.83 509.25H1686.14V505.25ZM1687.02 505.25V509.25H1689.32L1690.48 507.251L1687.02 505.25ZM1733.02 425.625V421.625H1730.71L1729.55 423.624L1733.02 425.625ZM1764.02 425.625L1767.45 427.676L1771.06 421.625H1764.02V425.625ZM1700.39 532.125L1696.96 530.074L1696.39 531.021V532.125H1700.39ZM1700.39 602H1672.39V610H1700.39V602ZM1676.39 606V532.125H1668.39V606H1676.39ZM1675.83 530.077L1612.33 423.577L1605.45 427.673L1668.95 534.173L1675.83 530.077ZM1608.89 429.625H1640.14V421.625H1608.89V429.625ZM1636.68 427.626L1682.68 507.251L1689.6 503.249L1643.6 423.624L1636.68 427.626ZM1686.14 509.25H1687.02V501.25H1686.14V509.25ZM1690.48 507.251L1736.48 427.626L1729.55 423.624L1683.55 503.249L1690.48 507.251ZM1733.02 429.625H1764.02V421.625H1733.02V429.625ZM1760.58 423.574L1696.96 530.074L1703.82 534.176L1767.45 427.676L1760.58 423.574ZM1696.39 532.125V606H1704.39V532.125H1696.39ZM1948.93 606V610H1952.93V606H1948.93ZM1920.93 606H1916.93V610H1920.93V606ZM1920.93 449.75H1924.93V445.75H1920.93V449.75ZM1865.68 449.75H1861.68V453.75H1865.68V449.75ZM1865.68 425.625V421.625H1861.68V425.625H1865.68ZM2004.05 425.625H2008.05V421.625H2004.05V425.625ZM2004.05 449.75V453.75H2008.05V449.75H2004.05ZM1948.93 449.75V445.75H1944.93V449.75H1948.93ZM1948.93 602H1920.93V610H1948.93V602ZM1924.93 606V449.75H1916.93V606H1924.93ZM1920.93 445.75H1865.68V453.75H1920.93V445.75ZM1869.68 449.75V425.625H1861.68V449.75H1869.68ZM1865.68 429.625H2004.05V421.625H1865.68V429.625ZM2000.05 425.625V449.75H2008.05V425.625H2000.05ZM2004.05 445.75H1948.93V453.75H2004.05V445.75ZM1944.93 449.75V606H1952.93V449.75H1944.93ZM2147.08 606V610H2151.08V606H2147.08ZM2119.08 606H2115.08V610H2119.08V606ZM2119.08 425.625V421.625H2115.08V425.625H2119.08ZM2147.08 425.625H2151.08V421.625H2147.08V425.625ZM2147.08 602H2119.08V610H2147.08V602ZM2123.08 606V425.625H2115.08V606H2123.08ZM2119.08 429.625H2147.08V421.625H2119.08V429.625ZM2143.08 425.625V606H2151.08V425.625H2143.08ZM2425.12 485.375V489.375H2429.66L2429.09 484.874L2425.12 485.375ZM2397.37 485.375L2393.46 486.22L2394.14 489.375H2397.37V485.375ZM2397.37 549.875V545.875H2394.27L2393.5 548.873L2397.37 549.875ZM2425.24 549.875L2429.18 550.601L2430.05 545.875H2425.24V549.875ZM2348.62 605C2324.3 605 2304.79 596.447 2291.31 581.281C2277.79 566.061 2269.99 543.781 2269.99 515.75H2261.99C2261.99 545.219 2270.2 569.564 2285.33 586.594C2300.51 603.678 2322.31 613 2348.62 613V605ZM2269.99 515.75C2269.99 487.92 2277.85 465.667 2291.41 450.424C2304.92 435.232 2324.44 426.625 2348.62 426.625V418.625C2322.42 418.625 2300.63 428.018 2285.43 445.107C2270.27 462.146 2261.99 486.455 2261.99 515.75H2269.99ZM2348.62 426.625C2387.75 426.625 2416.69 450.504 2421.15 485.876L2429.09 484.874C2424.05 444.996 2391.24 418.625 2348.62 418.625V426.625ZM2425.12 481.375H2397.37V489.375H2425.12V481.375ZM2401.28 484.53C2395.86 459.475 2374.91 443.125 2348.62 443.125V451.125C2371.33 451.125 2388.88 465.025 2393.46 486.22L2401.28 484.53ZM2348.62 443.125C2331.04 443.125 2316.37 450.389 2306.2 463.306C2296.09 476.13 2290.62 494.239 2290.62 515.75H2298.62C2298.62 495.511 2303.77 479.308 2312.48 468.257C2321.12 457.299 2333.45 451.125 2348.62 451.125V443.125ZM2290.62 515.75C2290.62 537.431 2296.02 555.578 2306.12 568.397C2316.29 581.317 2331 588.5 2348.74 588.5V580.5C2333.36 580.5 2321.01 574.371 2312.4 563.447C2303.72 552.422 2298.62 536.194 2298.62 515.75H2290.62ZM2348.74 588.5C2361.99 588.5 2373.59 585.102 2382.69 578.599C2391.82 572.078 2398.21 562.598 2401.24 550.877L2393.5 548.873C2390.9 558.902 2385.54 566.734 2378.05 572.089C2370.52 577.461 2360.63 580.5 2348.74 580.5V588.5ZM2397.37 553.875H2425.24V545.875H2397.37V553.875ZM2421.31 549.149C2418.03 566.912 2409.72 580.781 2397.47 590.241C2385.2 599.721 2368.67 605 2348.62 605V613C2370.07 613 2388.42 607.341 2402.36 596.572C2416.33 585.782 2425.58 570.088 2429.18 550.601L2421.31 549.149ZM2534.66 555.75V551.75H2530.43L2530.66 555.964L2534.66 555.75ZM2562.28 555.75L2566.26 555.305L2565.86 551.75H2562.28V555.75ZM2611.28 529.375L2612.24 525.491L2612.23 525.488L2612.22 525.486L2611.28 529.375ZM2587.91 523.75L2586.97 527.638L2586.97 527.639L2587.91 523.75ZM2670.16 475.125V479.125H2674.27L2674.15 475.013L2670.16 475.125ZM2642.91 475.125L2638.92 475.485L2639.25 479.125H2642.91V475.125ZM2600.78 499.25L2599.82 503.133L2599.83 503.135L2600.78 499.25ZM2620.66 504.125L2619.7 508.01L2619.72 508.014L2619.73 508.018L2620.66 504.125ZM2534.66 559.75H2562.28V551.75H2534.66V559.75ZM2558.3 556.195C2560.63 576.948 2580.61 589.375 2605.41 589.375V581.375C2582.7 581.375 2567.93 570.302 2566.26 555.305L2558.3 556.195ZM2605.41 589.375C2617.43 589.375 2628.07 586.275 2635.82 580.74C2643.63 575.166 2648.53 567.063 2648.53 557.5H2640.53C2640.53 564.062 2637.24 569.897 2631.17 574.229C2625.05 578.6 2616.13 581.375 2605.41 581.375V589.375ZM2648.53 557.5C2648.53 549.371 2645.58 542.643 2639.25 537.291C2633.16 532.13 2624.13 528.416 2612.24 525.491L2610.32 533.259C2621.81 536.084 2629.4 539.433 2634.09 543.397C2638.54 547.169 2640.53 551.629 2640.53 557.5H2648.53ZM2612.22 525.486L2588.84 519.861L2586.97 527.639L2610.34 533.264L2612.22 525.486ZM2588.84 519.862C2572.65 515.951 2561.32 510.322 2554.07 503.036C2546.93 495.872 2543.41 486.782 2543.41 475.125H2535.41C2535.41 488.593 2539.57 499.815 2548.4 508.682C2557.11 517.428 2570.04 523.549 2586.97 527.638L2588.84 519.862ZM2543.41 475.125C2543.41 460.832 2549.59 448.84 2560.27 440.332C2571.02 431.772 2586.49 426.625 2605.03 426.625V418.625C2585.07 418.625 2567.73 424.165 2555.29 434.074C2542.78 444.035 2535.41 458.293 2535.41 475.125H2543.41ZM2605.03 426.625C2623.37 426.625 2638.49 431.763 2649.04 440.312C2659.55 448.818 2665.75 460.852 2666.16 475.237L2674.15 475.013C2673.68 458.273 2666.38 444.057 2654.08 434.094C2641.82 424.174 2624.82 418.625 2605.03 418.625V426.625ZM2670.16 471.125H2642.91V479.125H2670.16V471.125ZM2646.89 474.765C2645.98 464.66 2641.29 456.398 2633.72 450.735C2626.23 445.126 2616.17 442.25 2604.66 442.25V450.25C2614.9 450.25 2623.14 452.811 2628.93 457.14C2634.64 461.415 2638.21 467.59 2638.92 475.485L2646.89 474.765ZM2604.66 442.25C2593.15 442.25 2583.1 445.155 2575.81 450.531C2568.44 455.968 2564.03 463.87 2564.03 473.25H2572.03C2572.03 466.63 2575.05 461.032 2580.56 456.969C2586.15 452.845 2594.41 450.25 2604.66 450.25V442.25ZM2564.03 473.25C2564.03 480.854 2566.97 487.068 2573.2 492.009C2579.17 496.743 2588.04 500.22 2599.82 503.133L2601.74 495.367C2590.27 492.53 2582.76 489.382 2578.17 485.741C2573.84 482.307 2572.03 478.396 2572.03 473.25H2564.03ZM2599.83 503.135L2619.7 508.01L2621.61 500.24L2601.73 495.365L2599.83 503.135ZM2619.73 508.018C2637.96 512.328 2650.24 518.019 2657.95 525.405C2665.49 532.622 2669.03 541.813 2669.03 554.125H2677.03C2677.03 540.062 2672.88 528.628 2663.48 519.627C2654.26 510.793 2640.35 504.672 2621.58 500.232L2619.73 508.018ZM2669.03 554.125C2669.03 569.83 2662.83 582.369 2651.77 591.076C2640.61 599.866 2624.17 605 2603.41 605V613C2625.39 613 2643.76 607.572 2656.72 597.361C2669.79 587.069 2677.03 572.17 2677.03 554.125H2669.03ZM2603.41 605C2584.06 605 2568.24 600.012 2557.13 591.442C2546.1 582.929 2539.46 570.701 2538.65 555.536L2530.66 555.964C2531.6 573.424 2539.34 587.821 2552.24 597.776C2565.07 607.676 2582.75 613 2603.41 613V605Z" fill="white" mask="url(#path-10-outside-1_95_117)"/>
<defs>
<clipPath id="clip0_95_117">
<rect width="2169.17" height="380" fill="white" transform="translate(613)"/>
</clipPath>
</defs>
</svg>
