<?xml version="1.0" encoding="utf-8"?>
<!-- Generator: Adobe Illustrator 16.0.0, SVG Export Plug-In . SVG Version: 6.00 Build 0)  -->
<!DOCTYPE svg PUBLIC "-//W3C//DTD SVG 1.1//EN" "http://www.w3.org/Graphics/SVG/1.1/DTD/svg11.dtd">
<svg version="1.1" id="Layer_1" xmlns="http://www.w3.org/2000/svg" xmlns:xlink="http://www.w3.org/1999/xlink" x="0px" y="0px"
	 width="24.447px" height="23.998px" viewBox="75.074 0 24.447 23.998" enable-background="new 75.074 0 24.447 23.998"
	 xml:space="preserve">
<path fill="#FCFCFC" d="M89.5,23.826c-0.504-0.232-0.91-0.668-1.084-1.229c-0.329-1.045,0.262-2.157,1.306-2.477
	c4.362-1.345,6.811-5.969,5.476-10.322c-0.59-1.906-1.838-3.531-3.531-4.585c-0.203-0.126-0.396-0.232-0.6-0.339
	c-0.125-0.067-0.271-0.135-0.426-0.203c-1.809-0.803-3.859-0.929-5.766-0.348c-2.562,0.793-4.595,2.786-5.426,5.33
	c-0.068,0.213-0.127,0.416-0.175,0.629c-0.028,0.077-0.048,0.174-0.058,0.251c-0.291,1.374-0.223,2.786,0.193,4.112
	c0.318,1.044-0.271,2.156-1.316,2.476c-1.044,0.329-2.156-0.261-2.477-1.306c-0.609-1.964-0.705-4.053-0.289-6.056
	c0.029-0.135,0.058-0.29,0.096-0.445c0.078-0.31,0.165-0.609,0.262-0.9c1.229-3.763,4.236-6.713,8.02-7.874
	c2.824-0.871,5.861-0.687,8.551,0.513c0.213,0.097,0.416,0.193,0.619,0.29c0.311,0.165,0.609,0.329,0.891,0.513
	c2.496,1.548,4.354,3.957,5.214,6.771c1.983,6.442-1.645,13.301-8.087,15.284C90.408,24.059,89.925,24.01,89.5,23.826z"/>
<path fill="#FCFCFC" d="M87.304,5.388c-3.657,0-6.607,2.96-6.607,6.607c0,3.657,2.95,6.607,6.607,6.607
	c3.647,0,6.606-2.95,6.606-6.607C93.91,8.349,90.951,5.388,87.304,5.388z M87.304,14.385c-1.325,0-2.39-1.074-2.39-2.39
	s1.064-2.379,2.39-2.379c1.315,0,2.38,1.064,2.38,2.379S88.619,14.385,87.304,14.385z"/>
</svg>
