<svg width="137" height="24" viewBox="0 0 137 24" fill="none" xmlns="http://www.w3.org/2000/svg">
<path d="M89.4994 23.8261C88.9964 23.5939 88.5901 23.1586 88.416 22.5975C88.0871 21.5528 88.6771 20.4403 89.7219 20.1211C94.0846 18.7765 96.532 14.1525 95.1971 9.79946C94.607 7.89377 93.3591 6.26862 91.6663 5.21421C91.4631 5.08845 91.2697 4.98204 91.0665 4.87563C90.9408 4.80792 90.7956 4.7402 90.6409 4.67249C88.8319 3.86959 86.7811 3.74383 84.8755 4.32424C82.312 5.11747 80.2805 7.11022 79.4486 9.65435C79.3809 9.86717 79.3229 10.0703 79.2745 10.2831C79.2455 10.3605 79.2261 10.4573 79.2164 10.5346C78.9262 11.9083 78.994 13.3206 79.4099 14.6459C79.7291 15.6906 79.1391 16.8031 78.0943 17.1223C77.0496 17.4512 75.9371 16.8611 75.6179 15.8164C75.0085 13.8527 74.9117 11.7632 75.3277 9.76076C75.3567 9.62533 75.3857 9.47056 75.4244 9.31578C75.5018 9.00623 75.5889 8.70635 75.6856 8.41614C76.9142 4.65314 79.9226 1.70272 83.705 0.541898C86.5296 -0.328719 89.5671 -0.144922 92.2564 1.05459C92.4692 1.15133 92.6723 1.24806 92.8755 1.3448C93.185 1.50925 93.4849 1.6737 93.7654 1.8575C96.2612 3.40526 98.1185 5.81397 98.9794 8.62896C100.963 15.0715 97.3349 21.93 90.8924 23.9131C90.4087 24.0582 89.925 24.0099 89.4994 23.8261Z" fill="#184882"/>
<path d="M87.3035 5.38833C83.647 5.38833 80.6965 8.34843 80.6965 11.9953C80.6965 15.6519 83.647 18.6024 87.3035 18.6024C90.9505 18.6024 93.9106 15.6519 93.9106 11.9953C93.9106 8.34843 90.9505 5.38833 87.3035 5.38833ZM87.3035 14.3847C85.9783 14.3847 84.9142 13.3109 84.9142 11.9953C84.9142 10.6797 85.9783 9.61566 87.3035 9.61566C88.6191 9.61566 89.6832 10.6797 89.6832 11.9953C89.6832 13.3109 88.6191 14.3847 87.3035 14.3847Z" fill="#1871B8"/>
<path d="M5.87183 22.6943H0V1.29643H5.53325L14.3362 12.6048V1.29643H56.7352L61.8331 9.58664L66.9408 1.29643H73.1995V22.6943H67.3083V10.4089L61.8331 18.7862L56.2709 10.4669V22.6943H50.4667V6.50079H43.9855V22.6943H38.0556V6.50079H20.2757V9.58664H30.5393V14.2589H20.2757V17.6544H31.7678V22.6943H15.0036L5.87183 10.9603V22.6943Z" fill="#184882"/>
<path d="M107.27 22.6943H101.398V1.30611H106.931L115.734 12.6048V1.30611H121.596V9.98325L129.093 1.30611H136.126L128.029 10.5056L136.406 22.6943H129.287L123.898 14.7523L121.528 17.2384V22.6943H116.401L107.27 10.9603V22.6943Z" fill="#184882"/>
</svg>
